<?xml version="1.0" encoding="UTF-8" standalone="no"?>
<!-- Generator: Adobe Illustrator 18.1.0, SVG Export Plug-In . SVG Version: 6.00 Build 0)  -->

<svg
   version="1.1"
   id="Plus"
   x="0px"
   y="0px"
   viewBox="0 0 20 20"
   enable-background="new 0 0 20 20"
   xml:space="preserve"
   sodipodi:docname="pin-fill.svg"
   inkscape:version="1.2.2 (732a01da63, 2022-12-09)"
   xmlns:inkscape="http://www.inkscape.org/namespaces/inkscape"
   xmlns:sodipodi="http://sodipodi.sourceforge.net/DTD/sodipodi-0.dtd"
   xmlns="http://www.w3.org/2000/svg"
   xmlns:svg="http://www.w3.org/2000/svg"><defs
   id="defs236" /><sodipodi:namedview
   id="namedview234"
   pagecolor="#505050"
   bordercolor="#ffffff"
   borderopacity="1"
   inkscape:showpageshadow="0"
   inkscape:pageopacity="0"
   inkscape:pagecheckerboard="1"
   inkscape:deskcolor="#505050"
   showgrid="false"
   inkscape:zoom="45.254834"
   inkscape:cx="9.4354561"
   inkscape:cy="11.092738"
   inkscape:window-width="1350"
   inkscape:window-height="1205"
   inkscape:window-x="2472"
   inkscape:window-y="987"
   inkscape:window-maximized="0"
   inkscape:current-layer="Plus" />

<path
   d="m 9.5122198,13.655174 -0.010004,2.23045 0.4392338,0.445723 0.4433344,-0.439772 0.01015,-2.229174 c -0.145932,0.01156 -0.293368,0.01845 -0.441786,0.01645 -0.1495832,-5.58e-4 -0.2974236,-0.0092 -0.4409026,-0.0238 z m 3.9682462,-3.321703 c -0.002,-0.01938 -0.0079,-0.03655 -0.01023,-0.05628 -0.01078,-0.07326 -0.02419,-0.144583 -0.04418,-0.216078 -0.0033,-0.01336 -0.01,-0.02362 -0.0125,-0.03569 -0.02343,-0.078084 -0.0491,-0.1531796 -0.0794,-0.2282722 -0.0023,-0.00372 -0.0035,-0.00549 -0.0071,-0.010995 C 13.05812,9.1586831 12.487687,8.6321969 11.744191,8.3029026 l 0.0052,-1.176257 C 12.420246,6.8079544 12.856381,6.3078819 12.858408,5.7433916 12.863408,4.7663829 11.582256,3.9669142 9.9978206,3.9559255 8.4121213,3.9450605 7.1240971,4.7280168 7.119421,5.7034286 7.116731,6.2690268 7.5478236,6.7747227 8.2170632,7.1023622 l -0.00621,1.1768984 c -0.7459567,0.3189649 -1.32186,0.8369051 -1.5964672,1.4618468 -0.00306,0.00335 -0.00419,0.00558 -0.0067,0.00971 -0.03145,0.073554 -0.059142,0.1501526 -0.081921,0.2263434 -0.00479,0.01268 -0.00998,0.02476 -0.011989,0.03575 -0.021351,0.07115 -0.034806,0.144143 -0.046809,0.216164 -0.00177,0.01742 -0.00927,0.03675 -0.010672,0.05475 -0.013678,0.09158 -0.021529,0.184199 -0.020836,0.276826 -0.00777,1.464608 1.568708,2.662528 3.5184755,2.676671 1.9507575,0.01351 3.5372285,-1.164086 3.5435345,-2.627786 1.9e-4,-0.09246 -0.0048,-0.185728 -0.01804,-0.276533 z M 9.9886412,5.7585125 C 9.3791183,5.7545785 8.886191,5.4479871 8.8875857,5.0714037 8.8891957,4.6960477 9.3851766,4.3950632 9.9937273,4.3996179 10.604203,4.4029379 11.095828,4.7117366 11.094763,5.086739 11.093764,5.461741 10.598639,5.7621399 9.9886412,5.7585125 Z"
   id="path44"
   style="stroke-width:0.576024" /></svg>
