<?xml version="1.0" encoding="UTF-8" standalone="no"?>
<!-- Generator: Adobe Illustrator 18.1.0, SVG Export Plug-In . SVG Version: 6.00 Build 0)  -->

<svg
   version="1.1"
   id="Plus"
   x="0px"
   y="0px"
   viewBox="0 0 20 20"
   enable-background="new 0 0 20 20"
   xml:space="preserve"
   sodipodi:docname="pin.svg"
   inkscape:version="1.2.2 (732a01da63, 2022-12-09)"
   xmlns:inkscape="http://www.inkscape.org/namespaces/inkscape"
   xmlns:sodipodi="http://sodipodi.sourceforge.net/DTD/sodipodi-0.dtd"
   xmlns="http://www.w3.org/2000/svg"
   xmlns:svg="http://www.w3.org/2000/svg"><defs
   id="defs236" /><sodipodi:namedview
   id="namedview234"
   pagecolor="#505050"
   bordercolor="#ffffff"
   borderopacity="1"
   inkscape:showpageshadow="0"
   inkscape:pageopacity="0"
   inkscape:pagecheckerboard="1"
   inkscape:deskcolor="#505050"
   showgrid="false"
   inkscape:zoom="45.254834"
   inkscape:cx="5.6016115"
   inkscape:cy="10.739184"
   inkscape:window-width="2498"
   inkscape:window-height="1417"
   inkscape:window-x="1925"
   inkscape:window-y="712"
   inkscape:window-maximized="1"
   inkscape:current-layer="Plus" />

<path
   id="path44"
   style="stroke-width:0.576024"
   d="M 9.9980469 3.9550781 C 8.4123524 3.9442131 7.1238167 4.7277162 7.1191406 5.703125 C 7.1164506 6.2687214 7.5475591 6.7739239 8.2167969 7.1015625 L 8.2109375 8.2792969 C 7.4649829 8.5982609 6.8898407 9.1152945 6.6152344 9.7402344 C 6.6121744 9.7435844 6.6099319 9.74587 6.6074219 9.75 C 6.5759719 9.8235537 6.5481696 9.900372 6.5253906 9.9765625 C 6.5206006 9.9892425 6.5156809 10.002682 6.5136719 10.013672 C 6.4923209 10.084822 6.4787999 10.156495 6.4667969 10.228516 C 6.4650269 10.245936 6.4584332 10.265203 6.4570312 10.283203 C 6.4433535 10.374783 6.4348539 10.46792 6.4355469 10.560547 C 6.4277769 12.025149 8.0033632 13.224138 9.953125 13.238281 C 11.903877 13.251791 13.491741 12.073072 13.498047 10.609375 C 13.498237 10.516915 13.491756 10.422836 13.478516 10.332031 L 13.480469 10.333984 C 13.478469 10.314604 13.473033 10.297074 13.470703 10.277344 C 13.459923 10.204084 13.445771 10.132042 13.425781 10.060547 C 13.422481 10.047187 13.416562 10.037461 13.414062 10.025391 C 13.390635 9.9473061 13.364284 9.8719673 13.333984 9.796875 C 13.331684 9.793155 13.329772 9.7926144 13.326172 9.7871094 C 13.057236 9.1596385 12.487634 8.6320275 11.744141 8.3027344 L 11.75 7.1269531 C 12.420852 6.8082628 12.857348 6.3086294 12.859375 5.7441406 C 12.864375 4.7671349 11.582477 3.9660668 9.9980469 3.9550781 z M 10.003906 4.6269531 A 2.0344079 1.0713058 0 0 1 12.037109 5.6992188 A 2.0344079 1.0713058 0 0 1 10.003906 6.7695312 A 2.0344079 1.0713058 0 0 1 7.96875 5.6992188 A 2.0344079 1.0713058 0 0 1 10.003906 4.6269531 z M 8.8867188 7.2910156 C 9.8647716 7.4928953 10.074932 7.4930101 11.107422 7.2910156 L 11.107422 8.8496094 A 2.8233216 1.9224466 0 0 1 12.828125 10.617188 A 2.8233216 1.9224466 0 0 1 10.003906 12.541016 A 2.8233216 1.9224466 0 0 1 7.1816406 10.617188 A 2.8233216 1.9224466 0 0 1 8.8867188 8.8535156 L 8.8867188 7.2910156 z M 9.5117188 13.654297 L 9.5019531 15.884766 L 9.9414062 16.332031 L 10.384766 15.890625 L 10.394531 13.662109 C 10.248599 13.673669 10.101543 13.681685 9.953125 13.679688 C 9.8035421 13.67913 9.6551972 13.668897 9.5117188 13.654297 z " /></svg>
